G75*
%MOIN*%
%OFA0B0*%
%FSLAX24Y24*%
%IPPOS*%
%LPD*%
%AMOC8*
5,1,8,0,0,1.08239X$1,22.5*
%
%ADD10C,0.0700*%
%ADD11C,0.0700*%
%ADD12C,0.0800*%
%ADD13C,0.0600*%
%ADD14R,0.0591X0.0512*%
%ADD15C,0.0340*%
%ADD16C,0.0240*%
%ADD17R,0.0709X0.0630*%
%ADD18C,0.0160*%
%ADD19C,0.2540*%
D10*
X003680Y011180D03*
X003680Y012180D03*
X003680Y013180D03*
X003680Y014180D03*
X003680Y015180D03*
X008680Y015180D03*
X008680Y014180D03*
X008680Y013180D03*
X008680Y012180D03*
X008680Y011180D03*
D11*
X009751Y013848D02*
X009751Y014548D01*
X011330Y015399D02*
X012030Y015399D01*
D12*
X012080Y013036D02*
X011280Y013036D01*
D13*
X015180Y012180D03*
X015180Y011180D03*
X015180Y010180D03*
X015180Y008180D03*
X015180Y007180D03*
X015180Y006180D03*
D14*
X010680Y008345D03*
X010680Y009015D03*
X010680Y010845D03*
X010680Y011515D03*
D15*
X011180Y004780D03*
X005680Y004780D03*
D16*
X005680Y005050D02*
X005436Y005034D01*
X005196Y004986D01*
X004964Y004908D01*
X004745Y004800D01*
X004542Y004664D01*
X004358Y004502D01*
X004196Y004318D01*
X004060Y004115D01*
X003952Y003896D01*
X003874Y003664D01*
X003826Y003424D01*
X003810Y003180D01*
X003826Y002936D01*
X003874Y002696D01*
X003952Y002464D01*
X004060Y002245D01*
X004196Y002042D01*
X004358Y001858D01*
X004542Y001696D01*
X004745Y001560D01*
X004964Y001452D01*
X005196Y001374D01*
X005436Y001326D01*
X005680Y001310D01*
X005924Y001326D01*
X006164Y001374D01*
X006396Y001452D01*
X006615Y001560D01*
X006818Y001696D01*
X007002Y001858D01*
X007164Y002042D01*
X007300Y002245D01*
X007408Y002464D01*
X007486Y002696D01*
X007534Y002936D01*
X007550Y003180D01*
X007534Y003424D01*
X007486Y003664D01*
X007408Y003896D01*
X007300Y004115D01*
X007164Y004318D01*
X007002Y004502D01*
X006818Y004664D01*
X006615Y004800D01*
X006396Y004908D01*
X006164Y004986D01*
X005924Y005034D01*
X005680Y005050D01*
X005089Y004950D02*
X006271Y004950D01*
X006747Y004712D02*
X004613Y004712D01*
X004332Y004473D02*
X007028Y004473D01*
X007220Y004235D02*
X004140Y004235D01*
X004002Y003996D02*
X007358Y003996D01*
X007455Y003758D02*
X003905Y003758D01*
X003845Y003519D02*
X007515Y003519D01*
X007543Y003281D02*
X003817Y003281D01*
X003819Y003042D02*
X007541Y003042D01*
X007508Y002804D02*
X003852Y002804D01*
X003918Y002565D02*
X007442Y002565D01*
X007340Y002327D02*
X004020Y002327D01*
X004165Y002088D02*
X007195Y002088D01*
X006993Y001850D02*
X004367Y001850D01*
X004669Y001611D02*
X006691Y001611D01*
X006158Y001373D02*
X005202Y001373D01*
X009374Y002696D02*
X009326Y002936D01*
X009310Y003180D01*
X009326Y003424D01*
X009374Y003664D01*
X009452Y003896D01*
X009560Y004115D01*
X009696Y004318D01*
X009858Y004502D01*
X010042Y004664D01*
X010245Y004800D01*
X010464Y004908D01*
X010696Y004986D01*
X010936Y005034D01*
X011180Y005050D01*
X011424Y005034D01*
X011664Y004986D01*
X011896Y004908D01*
X012115Y004800D01*
X012318Y004664D01*
X012502Y004502D01*
X012664Y004318D01*
X012800Y004115D01*
X012908Y003896D01*
X012986Y003664D01*
X013034Y003424D01*
X013050Y003180D01*
X013034Y002936D01*
X012986Y002696D01*
X012908Y002464D01*
X012800Y002245D01*
X012664Y002042D01*
X012502Y001858D01*
X012318Y001696D01*
X012115Y001560D01*
X011896Y001452D01*
X011664Y001374D01*
X011424Y001326D01*
X011180Y001310D01*
X010936Y001326D01*
X010696Y001374D01*
X010464Y001452D01*
X010245Y001560D01*
X010042Y001696D01*
X009858Y001858D01*
X009696Y002042D01*
X009560Y002245D01*
X009452Y002464D01*
X009374Y002696D01*
X009352Y002804D02*
X013008Y002804D01*
X013041Y003042D02*
X009319Y003042D01*
X009317Y003281D02*
X013043Y003281D01*
X013015Y003519D02*
X009345Y003519D01*
X009405Y003758D02*
X012955Y003758D01*
X012858Y003996D02*
X009502Y003996D01*
X009640Y004235D02*
X012720Y004235D01*
X012528Y004473D02*
X009832Y004473D01*
X010113Y004712D02*
X012247Y004712D01*
X011771Y004950D02*
X010589Y004950D01*
X009418Y002565D02*
X012942Y002565D01*
X012840Y002327D02*
X009520Y002327D01*
X009665Y002088D02*
X012695Y002088D01*
X012493Y001850D02*
X009867Y001850D01*
X010169Y001611D02*
X012191Y001611D01*
X011658Y001373D02*
X010702Y001373D01*
D17*
X006930Y016379D03*
X006930Y017481D03*
X004930Y017481D03*
X004930Y016379D03*
D18*
X006930Y016379D01*
X009231Y016379D01*
X011430Y014180D01*
X011430Y013286D01*
X011680Y013036D01*
X011670Y013596D02*
X011670Y014228D01*
X011633Y014316D01*
X011566Y014383D01*
X009367Y016582D01*
X009279Y016619D01*
X007444Y016619D01*
X007444Y016760D01*
X007351Y016854D01*
X006509Y016854D01*
X006416Y016760D01*
X006416Y016619D01*
X005444Y016619D01*
X005444Y016760D01*
X005351Y016854D01*
X004509Y016854D01*
X004416Y016760D01*
X004416Y016204D01*
X003867Y015655D01*
X003781Y015690D01*
X003579Y015690D01*
X003391Y015612D01*
X003248Y015469D01*
X003170Y015281D01*
X003170Y015079D01*
X000660Y015079D01*
X000660Y014921D02*
X003235Y014921D01*
X003248Y014891D02*
X003391Y014748D01*
X003532Y014689D01*
X003477Y014671D01*
X003402Y014633D01*
X003335Y014584D01*
X003276Y014525D01*
X003227Y014458D01*
X003189Y014383D01*
X003163Y014304D01*
X003150Y014222D01*
X003150Y014208D01*
X003652Y014208D01*
X003652Y014152D01*
X003150Y014152D01*
X003150Y014138D01*
X003163Y014056D01*
X003189Y013977D01*
X003227Y013902D01*
X003276Y013835D01*
X003335Y013776D01*
X003402Y013727D01*
X003477Y013689D01*
X003532Y013671D01*
X003391Y013612D01*
X003248Y013469D01*
X003170Y013281D01*
X003170Y013079D01*
X003248Y012891D01*
X003391Y012748D01*
X003554Y012680D01*
X003391Y012612D01*
X003248Y012469D01*
X003170Y012281D01*
X003170Y012079D01*
X003248Y011891D01*
X003391Y011748D01*
X003554Y011680D01*
X003391Y011612D01*
X003248Y011469D01*
X003170Y011281D01*
X003170Y011079D01*
X003248Y010891D01*
X003391Y010748D01*
X003579Y010670D01*
X003781Y010670D01*
X003969Y010748D01*
X004112Y010891D01*
X004190Y011079D01*
X004190Y011281D01*
X004112Y011469D01*
X003969Y011612D01*
X003806Y011680D01*
X003969Y011748D01*
X004112Y011891D01*
X004190Y012079D01*
X004190Y012281D01*
X004112Y012469D01*
X003969Y012612D01*
X003806Y012680D01*
X003969Y012748D01*
X004112Y012891D01*
X004190Y013079D01*
X004190Y013281D01*
X004112Y013469D01*
X003969Y013612D01*
X003828Y013671D01*
X003883Y013689D01*
X003958Y013727D01*
X004025Y013776D01*
X004084Y013835D01*
X004133Y013902D01*
X004171Y013977D01*
X004197Y014056D01*
X004210Y014138D01*
X004210Y014152D01*
X003708Y014152D01*
X003708Y014208D01*
X004210Y014208D01*
X004210Y014222D01*
X004197Y014304D01*
X004171Y014383D01*
X004133Y014458D01*
X004084Y014525D01*
X004025Y014584D01*
X003958Y014633D01*
X003883Y014671D01*
X003828Y014689D01*
X003969Y014748D01*
X004112Y014891D01*
X004190Y015079D01*
X008170Y015079D01*
X008248Y014891D01*
X008391Y014748D01*
X008554Y014680D01*
X008391Y014612D01*
X008248Y014469D01*
X008170Y014281D01*
X008170Y014259D01*
X006794Y012883D01*
X006727Y012816D01*
X006690Y012728D01*
X006690Y010882D01*
X006727Y010794D01*
X006794Y010727D01*
X008709Y008811D01*
X008798Y008775D01*
X010225Y008775D01*
X010225Y008692D01*
X010228Y008689D01*
X010217Y008671D01*
X010205Y008625D01*
X010205Y008393D01*
X010632Y008393D01*
X010632Y008297D01*
X010728Y008297D01*
X010728Y007909D01*
X010999Y007909D01*
X011045Y007922D01*
X011086Y007945D01*
X011119Y007979D01*
X011143Y008020D01*
X011155Y008066D01*
X011155Y008297D01*
X010728Y008297D01*
X010728Y008393D01*
X011155Y008393D01*
X011155Y008625D01*
X011143Y008671D01*
X011132Y008689D01*
X011135Y008692D01*
X011135Y008775D01*
X014062Y008775D01*
X014151Y008811D01*
X015068Y009729D01*
X015088Y009720D01*
X015271Y009720D01*
X015441Y009790D01*
X015570Y009919D01*
X015640Y010088D01*
X015640Y010271D01*
X015570Y010441D01*
X015441Y010570D01*
X015271Y010640D01*
X015088Y010640D01*
X014919Y010570D01*
X014790Y010441D01*
X014720Y010271D01*
X014720Y010088D01*
X014729Y010068D01*
X013915Y009255D01*
X011135Y009255D01*
X011135Y009337D01*
X011042Y009431D01*
X010318Y009431D01*
X010225Y009337D01*
X010225Y009255D01*
X008945Y009255D01*
X007170Y011029D01*
X007170Y012581D01*
X008364Y013775D01*
X008391Y013748D01*
X008554Y013680D01*
X008391Y013612D01*
X008248Y013469D01*
X008170Y013281D01*
X008170Y013079D01*
X008248Y012891D01*
X008391Y012748D01*
X008554Y012680D01*
X008391Y012612D01*
X008248Y012469D01*
X008170Y012281D01*
X008170Y012079D01*
X008248Y011891D01*
X008391Y011748D01*
X008554Y011680D01*
X008391Y011612D01*
X008248Y011469D01*
X008170Y011281D01*
X008170Y011079D01*
X008248Y010891D01*
X008391Y010748D01*
X008579Y010670D01*
X008781Y010670D01*
X008969Y010748D01*
X009112Y010891D01*
X009133Y010940D01*
X009581Y010940D01*
X009727Y010794D01*
X009794Y010727D01*
X009882Y010690D01*
X010225Y010690D01*
X010225Y010523D01*
X010318Y010429D01*
X011042Y010429D01*
X011135Y010523D01*
X011135Y010605D01*
X013393Y010605D01*
X013481Y010642D01*
X014779Y011940D01*
X014782Y011940D01*
X014790Y011919D01*
X014919Y011790D01*
X015088Y011720D01*
X015271Y011720D01*
X015441Y011790D01*
X015570Y011919D01*
X015640Y012088D01*
X015640Y012271D01*
X015570Y012441D01*
X015441Y012570D01*
X015271Y012640D01*
X015088Y012640D01*
X014919Y012570D01*
X014790Y012441D01*
X014782Y012420D01*
X014632Y012420D01*
X014544Y012383D01*
X014477Y012316D01*
X013246Y011085D01*
X011135Y011085D01*
X011135Y011168D01*
X011132Y011171D01*
X011143Y011189D01*
X011155Y011235D01*
X011155Y011467D01*
X010728Y011467D01*
X010728Y011563D01*
X010632Y011563D01*
X010632Y011951D01*
X010361Y011951D01*
X010315Y011938D01*
X010274Y011915D01*
X010241Y011881D01*
X010217Y011840D01*
X010205Y011794D01*
X010205Y011563D01*
X010632Y011563D01*
X010632Y011467D01*
X010205Y011467D01*
X010205Y011235D01*
X010217Y011189D01*
X010228Y011171D01*
X010227Y011170D01*
X010029Y011170D01*
X009816Y011383D01*
X009728Y011420D01*
X009133Y011420D01*
X009112Y011469D01*
X008969Y011612D01*
X008806Y011680D01*
X008969Y011748D01*
X009112Y011891D01*
X009190Y012079D01*
X009190Y012281D01*
X009112Y012469D01*
X008969Y012612D01*
X008806Y012680D01*
X008969Y012748D01*
X009112Y012891D01*
X009190Y013079D01*
X009190Y013281D01*
X009112Y013469D01*
X008969Y013612D01*
X008806Y013680D01*
X008969Y013748D01*
X009112Y013891D01*
X009190Y014079D01*
X009190Y014281D01*
X009112Y014469D01*
X008969Y014612D01*
X008806Y014680D01*
X008969Y014748D01*
X009112Y014891D01*
X009190Y015079D01*
X010192Y015079D01*
X010096Y014952D02*
X010155Y014893D01*
X010204Y014825D01*
X010242Y014751D01*
X010268Y014672D01*
X010281Y014589D01*
X010281Y014198D01*
X009751Y014198D01*
X009751Y014198D01*
X009751Y015078D01*
X009793Y015078D01*
X009875Y015065D01*
X009954Y015039D01*
X010029Y015001D01*
X010096Y014952D01*
X010128Y014921D02*
X010350Y014921D01*
X010237Y014762D02*
X010509Y014762D01*
X010667Y014604D02*
X010279Y014604D01*
X010281Y014445D02*
X010826Y014445D01*
X010984Y014287D02*
X010281Y014287D01*
X010281Y014198D02*
X009751Y014198D01*
X009751Y014198D01*
X009751Y015078D01*
X009709Y015078D01*
X009627Y015065D01*
X009547Y015039D01*
X009473Y015001D01*
X009406Y014952D01*
X009347Y014893D01*
X009298Y014825D01*
X009260Y014751D01*
X009234Y014672D01*
X009221Y014589D01*
X009221Y014198D01*
X009751Y014198D01*
X009751Y014198D01*
X009751Y013318D01*
X009793Y013318D01*
X009875Y013331D01*
X009954Y013357D01*
X010029Y013394D01*
X010096Y013443D01*
X010155Y013502D01*
X010204Y013570D01*
X010242Y013644D01*
X010268Y013724D01*
X010281Y013806D01*
X010281Y014198D01*
X010281Y014128D02*
X011143Y014128D01*
X011190Y014081D02*
X011190Y013596D01*
X011169Y013596D01*
X010963Y013511D01*
X010805Y013354D01*
X010720Y013148D01*
X010720Y012925D01*
X010805Y012719D01*
X010963Y012562D01*
X011169Y012476D01*
X012191Y012476D01*
X012397Y012562D01*
X012555Y012719D01*
X012640Y012925D01*
X012640Y013148D01*
X012555Y013354D01*
X012397Y013511D01*
X012191Y013596D01*
X011670Y013596D01*
X011670Y013653D02*
X016192Y013653D01*
X016192Y013811D02*
X011670Y013811D01*
X011670Y013970D02*
X016192Y013970D01*
X016192Y014128D02*
X011670Y014128D01*
X011646Y014287D02*
X016192Y014287D01*
X016192Y014445D02*
X011504Y014445D01*
X011346Y014604D02*
X016192Y014604D01*
X016192Y014762D02*
X011187Y014762D01*
X011206Y014882D02*
X011288Y014869D01*
X011680Y014869D01*
X012072Y014869D01*
X012154Y014882D01*
X012233Y014907D01*
X012308Y014945D01*
X012375Y014994D01*
X012434Y015053D01*
X012483Y015121D01*
X012521Y015195D01*
X012547Y015274D01*
X012560Y015357D01*
X012560Y015398D01*
X011680Y015398D01*
X011680Y014869D01*
X011680Y015398D01*
X011680Y015398D01*
X011680Y015399D01*
X011680Y015929D01*
X011288Y015929D01*
X011206Y015915D01*
X011127Y015890D01*
X011052Y015852D01*
X010985Y015803D01*
X010926Y015744D01*
X010877Y015676D01*
X010839Y015602D01*
X010813Y015523D01*
X010800Y015440D01*
X010800Y015399D01*
X011680Y015399D01*
X011680Y015399D01*
X011680Y015929D01*
X012072Y015929D01*
X012154Y015915D01*
X012233Y015890D01*
X012308Y015852D01*
X012375Y015803D01*
X012434Y015744D01*
X012483Y015676D01*
X012521Y015602D01*
X012547Y015523D01*
X012560Y015440D01*
X012560Y015399D01*
X011680Y015399D01*
X011680Y015398D01*
X010800Y015398D01*
X010800Y015357D01*
X010813Y015274D01*
X010839Y015195D01*
X010877Y015121D01*
X010926Y015053D01*
X010985Y014994D01*
X011052Y014945D01*
X011127Y014907D01*
X011206Y014882D01*
X011101Y014921D02*
X011029Y014921D01*
X010907Y015079D02*
X010870Y015079D01*
X010825Y015238D02*
X010712Y015238D01*
X010800Y015396D02*
X010553Y015396D01*
X010395Y015555D02*
X010823Y015555D01*
X010903Y015713D02*
X010236Y015713D01*
X010078Y015872D02*
X011091Y015872D01*
X011680Y015872D02*
X011680Y015872D01*
X011680Y015713D02*
X011680Y015713D01*
X011680Y015555D02*
X011680Y015555D01*
X011680Y015396D02*
X011680Y015396D01*
X011680Y015238D02*
X011680Y015238D01*
X011680Y015079D02*
X011680Y015079D01*
X011680Y014921D02*
X011680Y014921D01*
X012259Y014921D02*
X016192Y014921D01*
X016192Y015079D02*
X012453Y015079D01*
X012535Y015238D02*
X016192Y015238D01*
X016192Y015396D02*
X012560Y015396D01*
X012537Y015555D02*
X016192Y015555D01*
X016192Y015713D02*
X012457Y015713D01*
X012269Y015872D02*
X014586Y015872D01*
X014628Y015847D02*
X014992Y015750D01*
X015368Y015750D01*
X015732Y015847D01*
X016058Y016036D01*
X016192Y016170D01*
X016192Y002690D01*
X016058Y002824D01*
X015732Y003013D01*
X015368Y003110D01*
X014992Y003110D01*
X014628Y003013D01*
X014302Y002824D01*
X014036Y002558D01*
X013847Y002232D01*
X013750Y001868D01*
X013750Y001492D01*
X013847Y001128D01*
X014036Y000802D01*
X014178Y000660D01*
X011624Y000660D01*
X011661Y000667D01*
X011707Y000670D01*
X011713Y000676D01*
X011886Y000708D01*
X011894Y000704D01*
X011938Y000717D01*
X011983Y000726D01*
X011988Y000733D01*
X012156Y000786D01*
X012164Y000782D01*
X012206Y000801D01*
X012250Y000815D01*
X012254Y000823D01*
X012415Y000895D01*
X012424Y000893D01*
X012463Y000917D01*
X012505Y000936D01*
X012508Y000944D01*
X012659Y001035D01*
X012668Y001034D01*
X012704Y001062D01*
X012743Y001086D01*
X012745Y001095D01*
X012884Y001203D01*
X012893Y001203D01*
X012925Y001236D01*
X012961Y001264D01*
X012963Y001273D01*
X013087Y001397D01*
X013096Y001399D01*
X013124Y001435D01*
X013157Y001467D01*
X013157Y001476D01*
X013265Y001615D01*
X013274Y001617D01*
X013298Y001656D01*
X013326Y001692D01*
X013325Y001701D01*
X013416Y001852D01*
X013424Y001855D01*
X013443Y001897D01*
X013467Y001936D01*
X013465Y001945D01*
X013537Y002106D01*
X013545Y002110D01*
X013559Y002154D01*
X013578Y002196D01*
X013574Y002204D01*
X013627Y002372D01*
X013634Y002377D01*
X013643Y002422D01*
X013656Y002466D01*
X013652Y002474D01*
X013684Y002647D01*
X013690Y002653D01*
X013693Y002699D01*
X013702Y002744D01*
X013696Y002752D01*
X013707Y002923D01*
X013710Y002926D01*
X013710Y002976D01*
X013713Y003026D01*
X013710Y003029D01*
X013710Y003231D01*
X013713Y003234D01*
X013710Y003284D01*
X013710Y003334D01*
X013707Y003337D01*
X013696Y003520D01*
X013701Y003528D01*
X013693Y003573D01*
X013690Y003619D01*
X013683Y003625D01*
X013649Y003810D01*
X013653Y003818D01*
X013640Y003862D01*
X013631Y003907D01*
X013624Y003912D01*
X013568Y004091D01*
X013571Y004100D01*
X013552Y004142D01*
X013539Y004186D01*
X013531Y004190D01*
X013454Y004361D01*
X013456Y004370D01*
X013432Y004409D01*
X013413Y004451D01*
X013405Y004455D01*
X013307Y004615D01*
X013308Y004624D01*
X013280Y004661D01*
X013256Y004700D01*
X013248Y004702D01*
X013132Y004850D01*
X013132Y004859D01*
X013099Y004892D01*
X013071Y004928D01*
X013062Y004929D01*
X012929Y005062D01*
X012928Y005071D01*
X012892Y005099D01*
X012859Y005132D01*
X012850Y005132D01*
X012702Y005248D01*
X012700Y005256D01*
X012661Y005280D01*
X012624Y005308D01*
X012615Y005307D01*
X012455Y005405D01*
X012451Y005413D01*
X012409Y005432D01*
X012370Y005456D01*
X012361Y005454D01*
X012190Y005531D01*
X012186Y005539D01*
X012142Y005552D01*
X012100Y005571D01*
X012091Y005568D01*
X011912Y005624D01*
X011907Y005631D01*
X011862Y005640D01*
X011818Y005653D01*
X011810Y005649D01*
X011625Y005683D01*
X011619Y005690D01*
X011573Y005693D01*
X011528Y005701D01*
X011520Y005696D01*
X011337Y005707D01*
X011334Y005710D01*
X011284Y005710D01*
X011234Y005713D01*
X011231Y005710D01*
X011129Y005710D01*
X011126Y005713D01*
X011076Y005710D01*
X011026Y005710D01*
X011023Y005707D01*
X010840Y005696D01*
X010832Y005701D01*
X010787Y005693D01*
X010741Y005690D01*
X010735Y005683D01*
X010550Y005649D01*
X010542Y005653D01*
X010498Y005640D01*
X010453Y005631D01*
X010448Y005624D01*
X010269Y005568D01*
X010260Y005571D01*
X010218Y005552D01*
X010174Y005539D01*
X010170Y005531D01*
X009999Y005454D01*
X009990Y005456D01*
X009951Y005432D01*
X009909Y005413D01*
X009905Y005405D01*
X009745Y005307D01*
X009736Y005308D01*
X009699Y005280D01*
X009660Y005256D01*
X009658Y005248D01*
X009510Y005132D01*
X009501Y005132D01*
X009468Y005099D01*
X009432Y005071D01*
X009431Y005062D01*
X009298Y004929D01*
X009289Y004928D01*
X009261Y004892D01*
X009228Y004859D01*
X009228Y004850D01*
X009112Y004702D01*
X009104Y004700D01*
X009080Y004661D01*
X009052Y004624D01*
X009053Y004615D01*
X008955Y004455D01*
X008947Y004451D01*
X008928Y004409D01*
X008904Y004370D01*
X008906Y004361D01*
X008829Y004190D01*
X008821Y004186D01*
X008808Y004142D01*
X008789Y004100D01*
X008792Y004091D01*
X008736Y003912D01*
X008729Y003907D01*
X008720Y003862D01*
X008707Y003818D01*
X008711Y003810D01*
X008677Y003625D01*
X008670Y003619D01*
X008667Y003573D01*
X008659Y003528D01*
X008664Y003520D01*
X008653Y003337D01*
X008650Y003334D01*
X008650Y003284D01*
X008647Y003234D01*
X008650Y003231D01*
X008650Y003226D01*
X008685Y003191D01*
X008695Y003180D01*
X008685Y003169D01*
X008650Y003134D01*
X008650Y003129D01*
X008647Y003126D01*
X008650Y003076D01*
X008650Y003026D01*
X008653Y003023D01*
X008664Y002840D01*
X008659Y002832D01*
X008667Y002787D01*
X008670Y002741D01*
X008677Y002735D01*
X008711Y002550D01*
X008707Y002542D01*
X008720Y002498D01*
X008729Y002453D01*
X008736Y002448D01*
X008792Y002269D01*
X008789Y002260D01*
X008808Y002218D01*
X008821Y002174D01*
X008829Y002170D01*
X008906Y001999D01*
X008904Y001990D01*
X008928Y001951D01*
X008947Y001909D01*
X008955Y001905D01*
X009053Y001745D01*
X009052Y001736D01*
X009080Y001699D01*
X009104Y001660D01*
X009112Y001658D01*
X009228Y001510D01*
X009228Y001501D01*
X009261Y001468D01*
X009289Y001432D01*
X009298Y001431D01*
X009431Y001298D01*
X009432Y001289D01*
X009468Y001261D01*
X009501Y001228D01*
X009510Y001228D01*
X009658Y001112D01*
X009660Y001104D01*
X009699Y001080D01*
X009736Y001052D01*
X009745Y001053D01*
X009905Y000955D01*
X009909Y000947D01*
X009951Y000928D01*
X009990Y000904D01*
X009999Y000906D01*
X010170Y000829D01*
X010174Y000821D01*
X010218Y000808D01*
X010260Y000789D01*
X010269Y000792D01*
X010448Y000736D01*
X010453Y000729D01*
X010498Y000720D01*
X010542Y000707D01*
X010550Y000711D01*
X010735Y000677D01*
X010741Y000670D01*
X010787Y000667D01*
X010828Y000660D01*
X006124Y000660D01*
X006161Y000667D01*
X006207Y000670D01*
X006213Y000676D01*
X006386Y000708D01*
X006394Y000704D01*
X006438Y000717D01*
X006483Y000726D01*
X006488Y000733D01*
X006656Y000786D01*
X006664Y000782D01*
X006706Y000801D01*
X006750Y000815D01*
X006754Y000823D01*
X006915Y000895D01*
X006924Y000893D01*
X006963Y000917D01*
X007005Y000936D01*
X007008Y000944D01*
X007159Y001035D01*
X007168Y001034D01*
X007204Y001062D01*
X007243Y001086D01*
X007245Y001095D01*
X007384Y001203D01*
X007393Y001203D01*
X007425Y001236D01*
X007461Y001264D01*
X007463Y001273D01*
X007587Y001397D01*
X007596Y001399D01*
X007624Y001435D01*
X007657Y001467D01*
X007657Y001476D01*
X007765Y001615D01*
X007774Y001617D01*
X007798Y001656D01*
X007826Y001692D01*
X007825Y001701D01*
X007916Y001852D01*
X007924Y001855D01*
X007943Y001897D01*
X007967Y001936D01*
X007965Y001945D01*
X008037Y002106D01*
X008045Y002110D01*
X008059Y002154D01*
X008078Y002196D01*
X008074Y002204D01*
X008127Y002372D01*
X008134Y002377D01*
X008143Y002422D01*
X008156Y002466D01*
X008152Y002474D01*
X008184Y002647D01*
X008190Y002653D01*
X008193Y002699D01*
X008202Y002744D01*
X008196Y002752D01*
X008207Y002923D01*
X008210Y002926D01*
X008210Y002976D01*
X008213Y003026D01*
X008210Y003029D01*
X008210Y003231D01*
X008213Y003234D01*
X008210Y003284D01*
X008210Y003334D01*
X008207Y003337D01*
X008196Y003520D01*
X008201Y003528D01*
X008193Y003573D01*
X008190Y003619D01*
X008183Y003625D01*
X008149Y003810D01*
X008153Y003818D01*
X008140Y003862D01*
X008131Y003907D01*
X008124Y003912D01*
X008068Y004091D01*
X008071Y004100D01*
X008052Y004142D01*
X008039Y004186D01*
X008031Y004190D01*
X007954Y004361D01*
X007956Y004370D01*
X007932Y004409D01*
X007913Y004451D01*
X007905Y004455D01*
X007807Y004615D01*
X007808Y004624D01*
X007780Y004661D01*
X007756Y004700D01*
X007748Y004702D01*
X007632Y004850D01*
X007632Y004859D01*
X007599Y004892D01*
X007571Y004928D01*
X007562Y004929D01*
X007429Y005062D01*
X007428Y005071D01*
X007392Y005099D01*
X007359Y005132D01*
X007350Y005132D01*
X007202Y005248D01*
X007200Y005256D01*
X007161Y005280D01*
X007124Y005308D01*
X007115Y005307D01*
X006955Y005405D01*
X006951Y005413D01*
X006909Y005432D01*
X006870Y005456D01*
X006861Y005454D01*
X006690Y005531D01*
X006686Y005539D01*
X006642Y005552D01*
X006600Y005571D01*
X006591Y005568D01*
X006412Y005624D01*
X006407Y005631D01*
X006362Y005640D01*
X006318Y005653D01*
X006310Y005649D01*
X006125Y005683D01*
X006119Y005690D01*
X006073Y005693D01*
X006028Y005701D01*
X006020Y005696D01*
X005837Y005707D01*
X005834Y005710D01*
X005784Y005710D01*
X005734Y005713D01*
X005731Y005710D01*
X005629Y005710D01*
X005626Y005713D01*
X005576Y005710D01*
X005526Y005710D01*
X005523Y005707D01*
X005340Y005696D01*
X005332Y005701D01*
X005287Y005693D01*
X005241Y005690D01*
X005235Y005683D01*
X005050Y005649D01*
X005042Y005653D01*
X004998Y005640D01*
X004953Y005631D01*
X004948Y005624D01*
X004769Y005568D01*
X004760Y005571D01*
X004718Y005552D01*
X004674Y005539D01*
X004670Y005531D01*
X004499Y005454D01*
X004490Y005456D01*
X004451Y005432D01*
X004409Y005413D01*
X004405Y005405D01*
X004245Y005307D01*
X004236Y005308D01*
X004199Y005280D01*
X004160Y005256D01*
X004158Y005248D01*
X004010Y005132D01*
X004001Y005132D01*
X003968Y005099D01*
X003932Y005071D01*
X003931Y005062D01*
X003798Y004929D01*
X003789Y004928D01*
X003761Y004892D01*
X003728Y004859D01*
X003728Y004850D01*
X003612Y004702D01*
X003604Y004700D01*
X003580Y004661D01*
X003552Y004624D01*
X003553Y004615D01*
X003455Y004455D01*
X003447Y004451D01*
X003428Y004409D01*
X003404Y004370D01*
X003406Y004361D01*
X003329Y004190D01*
X003321Y004186D01*
X003308Y004142D01*
X003289Y004100D01*
X003292Y004091D01*
X003236Y003912D01*
X003229Y003907D01*
X003220Y003862D01*
X003207Y003818D01*
X003211Y003810D01*
X003177Y003625D01*
X003170Y003619D01*
X003167Y003573D01*
X003159Y003528D01*
X003164Y003520D01*
X003153Y003337D01*
X003150Y003334D01*
X003150Y003284D01*
X003147Y003234D01*
X003150Y003231D01*
X003150Y003226D01*
X003185Y003191D01*
X003195Y003180D01*
X003185Y003169D01*
X003150Y003134D01*
X003150Y003129D01*
X003147Y003126D01*
X003150Y003076D01*
X003150Y003026D01*
X003153Y003023D01*
X003164Y002840D01*
X003159Y002832D01*
X003167Y002787D01*
X003170Y002741D01*
X003177Y002735D01*
X003211Y002550D01*
X003207Y002542D01*
X003220Y002498D01*
X003229Y002453D01*
X003236Y002448D01*
X003292Y002269D01*
X003289Y002260D01*
X003308Y002218D01*
X003321Y002174D01*
X003329Y002170D01*
X003406Y001999D01*
X003404Y001990D01*
X003428Y001951D01*
X003447Y001909D01*
X003455Y001905D01*
X003553Y001745D01*
X003552Y001736D01*
X003580Y001699D01*
X003604Y001660D01*
X003612Y001658D01*
X003728Y001510D01*
X003728Y001501D01*
X003761Y001468D01*
X003789Y001432D01*
X003798Y001431D01*
X003931Y001298D01*
X003932Y001289D01*
X003968Y001261D01*
X004001Y001228D01*
X004010Y001228D01*
X004158Y001112D01*
X004160Y001104D01*
X004199Y001080D01*
X004236Y001052D01*
X004245Y001053D01*
X004405Y000955D01*
X004409Y000947D01*
X004451Y000928D01*
X004490Y000904D01*
X004499Y000906D01*
X004670Y000829D01*
X004674Y000821D01*
X004718Y000808D01*
X004760Y000789D01*
X004769Y000792D01*
X004948Y000736D01*
X004953Y000729D01*
X004998Y000720D01*
X005042Y000707D01*
X005050Y000711D01*
X005235Y000677D01*
X005241Y000670D01*
X005287Y000667D01*
X005328Y000660D01*
X002682Y000660D01*
X002824Y000802D01*
X003013Y001128D01*
X003110Y001492D01*
X003110Y001868D01*
X003013Y002232D01*
X002824Y002558D01*
X002558Y002824D01*
X002232Y003013D01*
X001868Y003110D01*
X001492Y003110D01*
X001128Y003013D01*
X000802Y002824D01*
X000660Y002682D01*
X000660Y016178D01*
X000802Y016036D01*
X001128Y015847D01*
X001492Y015750D01*
X001868Y015750D01*
X002232Y015847D01*
X002558Y016036D01*
X002824Y016302D01*
X003013Y016628D01*
X003110Y016992D01*
X003110Y017368D01*
X003013Y017732D01*
X002824Y018058D01*
X002558Y018324D01*
X002232Y018513D01*
X002017Y018570D01*
X014843Y018570D01*
X014628Y018513D01*
X014302Y018324D01*
X014036Y018058D01*
X013847Y017732D01*
X013750Y017368D01*
X013750Y016992D01*
X013847Y016628D01*
X014036Y016302D01*
X014302Y016036D01*
X014628Y015847D01*
X014312Y016030D02*
X009919Y016030D01*
X009761Y016189D02*
X014149Y016189D01*
X014010Y016347D02*
X009602Y016347D01*
X009444Y016506D02*
X013918Y016506D01*
X013838Y016664D02*
X007444Y016664D01*
X007382Y016823D02*
X013795Y016823D01*
X013753Y016981D02*
X003107Y016981D01*
X003110Y017140D02*
X004396Y017140D01*
X004396Y017143D02*
X004408Y017097D01*
X004432Y017056D01*
X004465Y017022D01*
X004506Y016998D01*
X004552Y016986D01*
X004853Y016986D01*
X004853Y017404D01*
X005007Y017404D01*
X005007Y016986D01*
X005308Y016986D01*
X005354Y016998D01*
X005395Y017022D01*
X005428Y017056D01*
X005452Y017097D01*
X005464Y017143D01*
X005464Y017404D01*
X005007Y017404D01*
X005007Y017559D01*
X004853Y017559D01*
X004853Y017976D01*
X004552Y017976D01*
X004506Y017964D01*
X004465Y017940D01*
X004432Y017907D01*
X004408Y017866D01*
X004396Y017820D01*
X004396Y017559D01*
X004853Y017559D01*
X004853Y017404D01*
X004396Y017404D01*
X004396Y017143D01*
X004396Y017298D02*
X003110Y017298D01*
X003086Y017457D02*
X004853Y017457D01*
X005007Y017457D02*
X006853Y017457D01*
X006853Y017404D02*
X006853Y017559D01*
X006853Y017976D01*
X006552Y017976D01*
X006506Y017964D01*
X006465Y017940D01*
X006432Y017907D01*
X006408Y017866D01*
X006396Y017820D01*
X006396Y017559D01*
X006853Y017559D01*
X007007Y017559D01*
X007007Y017976D01*
X007308Y017976D01*
X007354Y017964D01*
X007395Y017940D01*
X007428Y017907D01*
X007452Y017866D01*
X007464Y017820D01*
X007464Y017559D01*
X007007Y017559D01*
X007007Y017404D01*
X007007Y016986D01*
X007308Y016986D01*
X007354Y016998D01*
X007395Y017022D01*
X007428Y017056D01*
X007452Y017097D01*
X007464Y017143D01*
X007464Y017404D01*
X007007Y017404D01*
X006853Y017404D01*
X006853Y016986D01*
X006552Y016986D01*
X006506Y016998D01*
X006465Y017022D01*
X006432Y017056D01*
X006408Y017097D01*
X006396Y017143D01*
X006396Y017404D01*
X006853Y017404D01*
X006853Y017298D02*
X007007Y017298D01*
X007007Y017140D02*
X006853Y017140D01*
X007007Y017457D02*
X013774Y017457D01*
X013750Y017298D02*
X007464Y017298D01*
X007464Y017140D02*
X013750Y017140D01*
X013816Y017615D02*
X007464Y017615D01*
X007464Y017774D02*
X013871Y017774D01*
X013963Y017932D02*
X007403Y017932D01*
X007007Y017932D02*
X006853Y017932D01*
X006853Y017774D02*
X007007Y017774D01*
X007007Y017615D02*
X006853Y017615D01*
X006457Y017932D02*
X005403Y017932D01*
X005395Y017940D02*
X005428Y017907D01*
X005452Y017866D01*
X005464Y017820D01*
X005464Y017559D01*
X005007Y017559D01*
X005007Y017976D01*
X005308Y017976D01*
X005354Y017964D01*
X005395Y017940D01*
X005464Y017774D02*
X006396Y017774D01*
X006396Y017615D02*
X005464Y017615D01*
X005464Y017298D02*
X006396Y017298D01*
X006396Y017140D02*
X005464Y017140D01*
X005382Y016823D02*
X006478Y016823D01*
X006416Y016664D02*
X005444Y016664D01*
X005444Y016139D02*
X006416Y016139D01*
X006416Y015998D01*
X006509Y015904D01*
X007351Y015904D01*
X007444Y015998D01*
X007444Y016139D01*
X009132Y016139D01*
X011190Y014081D01*
X011190Y013970D02*
X010281Y013970D01*
X010281Y013811D02*
X011190Y013811D01*
X011190Y013653D02*
X010245Y013653D01*
X010147Y013494D02*
X010946Y013494D01*
X010798Y013336D02*
X009890Y013336D01*
X009751Y013336D02*
X009751Y013336D01*
X009751Y013318D02*
X009751Y014198D01*
X009751Y014198D01*
X009221Y014198D01*
X009221Y013806D01*
X009234Y013724D01*
X009260Y013644D01*
X009298Y013570D01*
X009347Y013502D01*
X009406Y013443D01*
X009473Y013394D01*
X009547Y013357D01*
X009627Y013331D01*
X009709Y013318D01*
X009751Y013318D01*
X009612Y013336D02*
X009168Y013336D01*
X009190Y013177D02*
X010732Y013177D01*
X010720Y013019D02*
X009165Y013019D01*
X009081Y012860D02*
X010747Y012860D01*
X010823Y012702D02*
X008858Y012702D01*
X009038Y012543D02*
X011008Y012543D01*
X010999Y011951D02*
X010728Y011951D01*
X010728Y011563D01*
X011155Y011563D01*
X011155Y011794D01*
X011143Y011840D01*
X011119Y011881D01*
X011086Y011915D01*
X011045Y011938D01*
X010999Y011951D01*
X011091Y011909D02*
X014070Y011909D01*
X014228Y012068D02*
X009185Y012068D01*
X009190Y012226D02*
X014387Y012226D01*
X014477Y012316D02*
X014477Y012316D01*
X014547Y012385D02*
X009147Y012385D01*
X009120Y011909D02*
X010269Y011909D01*
X010205Y011751D02*
X008972Y011751D01*
X008989Y011592D02*
X010205Y011592D01*
X010205Y011434D02*
X009127Y011434D01*
X008680Y011180D02*
X009680Y011180D01*
X009930Y010930D01*
X010595Y010930D01*
X010680Y010845D01*
X013345Y010845D01*
X014680Y012180D01*
X015180Y012180D01*
X015345Y011751D02*
X016192Y011751D01*
X016192Y011909D02*
X015560Y011909D01*
X015631Y012068D02*
X016192Y012068D01*
X016192Y012226D02*
X015640Y012226D01*
X015593Y012385D02*
X016192Y012385D01*
X016192Y012543D02*
X015468Y012543D01*
X014892Y012543D02*
X012352Y012543D01*
X012537Y012702D02*
X016192Y012702D01*
X016192Y012860D02*
X012613Y012860D01*
X012640Y013019D02*
X016192Y013019D01*
X016192Y013177D02*
X012628Y013177D01*
X012562Y013336D02*
X016192Y013336D01*
X016192Y013494D02*
X012414Y013494D01*
X011155Y011751D02*
X013911Y011751D01*
X013753Y011592D02*
X011155Y011592D01*
X011155Y011434D02*
X013594Y011434D01*
X013436Y011275D02*
X011155Y011275D01*
X011135Y011117D02*
X013277Y011117D01*
X013639Y010800D02*
X014887Y010800D01*
X014867Y010814D02*
X014928Y010769D01*
X014996Y010735D01*
X015068Y010712D01*
X015142Y010700D01*
X015160Y010700D01*
X015160Y011160D01*
X015200Y011160D01*
X015200Y011200D01*
X015660Y011200D01*
X015660Y011218D01*
X015648Y011292D01*
X015625Y011364D01*
X015591Y011432D01*
X015546Y011493D01*
X015493Y011546D01*
X015432Y011591D01*
X015364Y011625D01*
X015292Y011648D01*
X015218Y011660D01*
X015200Y011660D01*
X015200Y011200D01*
X015160Y011200D01*
X015160Y011660D01*
X015142Y011660D01*
X015068Y011648D01*
X014996Y011625D01*
X014928Y011591D01*
X014867Y011546D01*
X014814Y011493D01*
X014769Y011432D01*
X014735Y011364D01*
X014712Y011292D01*
X014700Y011218D01*
X014700Y011200D01*
X015160Y011200D01*
X015160Y011160D01*
X014700Y011160D01*
X014700Y011142D01*
X014712Y011068D01*
X014735Y010996D01*
X014769Y010928D01*
X014814Y010867D01*
X014867Y010814D01*
X014754Y010958D02*
X013797Y010958D01*
X013956Y011117D02*
X014704Y011117D01*
X014709Y011275D02*
X014114Y011275D01*
X014273Y011434D02*
X014771Y011434D01*
X014931Y011592D02*
X014431Y011592D01*
X014590Y011751D02*
X015015Y011751D01*
X015160Y011592D02*
X015200Y011592D01*
X015200Y011434D02*
X015160Y011434D01*
X015160Y011275D02*
X015200Y011275D01*
X015200Y011160D02*
X015660Y011160D01*
X015660Y011142D01*
X015648Y011068D01*
X015625Y010996D01*
X015591Y010928D01*
X015546Y010867D01*
X015493Y010814D01*
X015432Y010769D01*
X015364Y010735D01*
X015292Y010712D01*
X015218Y010700D01*
X015200Y010700D01*
X015200Y011160D01*
X015200Y011117D02*
X015160Y011117D01*
X015160Y010958D02*
X015200Y010958D01*
X015200Y010800D02*
X015160Y010800D01*
X015473Y010800D02*
X016192Y010800D01*
X016192Y010958D02*
X015606Y010958D01*
X015656Y011117D02*
X016192Y011117D01*
X016192Y011275D02*
X015651Y011275D01*
X015589Y011434D02*
X016192Y011434D01*
X016192Y011592D02*
X015429Y011592D01*
X014800Y011909D02*
X014748Y011909D01*
X014832Y010483D02*
X011095Y010483D01*
X010265Y010483D02*
X007717Y010483D01*
X007558Y010641D02*
X010225Y010641D01*
X009721Y010800D02*
X009021Y010800D01*
X008339Y010800D02*
X007400Y010800D01*
X007241Y010958D02*
X008220Y010958D01*
X008170Y011117D02*
X007170Y011117D01*
X007170Y011275D02*
X008170Y011275D01*
X008233Y011434D02*
X007170Y011434D01*
X007170Y011592D02*
X008371Y011592D01*
X008388Y011751D02*
X007170Y011751D01*
X007170Y011909D02*
X008240Y011909D01*
X008175Y012068D02*
X007170Y012068D01*
X007170Y012226D02*
X008170Y012226D01*
X008213Y012385D02*
X007170Y012385D01*
X007170Y012543D02*
X008322Y012543D01*
X008502Y012702D02*
X007291Y012702D01*
X007449Y012860D02*
X008279Y012860D01*
X008195Y013019D02*
X007608Y013019D01*
X007766Y013177D02*
X008170Y013177D01*
X008192Y013336D02*
X007925Y013336D01*
X008083Y013494D02*
X008273Y013494D01*
X008242Y013653D02*
X008488Y013653D01*
X008872Y013653D02*
X009257Y013653D01*
X009221Y013811D02*
X009032Y013811D01*
X009145Y013970D02*
X009221Y013970D01*
X009221Y014128D02*
X009190Y014128D01*
X009188Y014287D02*
X009221Y014287D01*
X009221Y014445D02*
X009122Y014445D01*
X009223Y014604D02*
X008978Y014604D01*
X008983Y014762D02*
X009265Y014762D01*
X009374Y014921D02*
X009125Y014921D01*
X009190Y015079D02*
X009190Y015281D01*
X009112Y015469D01*
X008969Y015612D01*
X008781Y015690D01*
X008579Y015690D01*
X008391Y015612D01*
X008248Y015469D01*
X008170Y015281D01*
X008170Y015079D01*
X008170Y015238D02*
X004190Y015238D01*
X004190Y015281D02*
X004185Y015294D01*
X004794Y015904D01*
X005351Y015904D01*
X005444Y015998D01*
X005444Y016139D01*
X005444Y016030D02*
X006416Y016030D01*
X007444Y016030D02*
X009241Y016030D01*
X009399Y015872D02*
X004762Y015872D01*
X004604Y015713D02*
X009558Y015713D01*
X009716Y015555D02*
X009027Y015555D01*
X009143Y015396D02*
X009875Y015396D01*
X010033Y015238D02*
X009190Y015238D01*
X009751Y014921D02*
X009751Y014921D01*
X009751Y014762D02*
X009751Y014762D01*
X009751Y014604D02*
X009751Y014604D01*
X009751Y014445D02*
X009751Y014445D01*
X009751Y014287D02*
X009751Y014287D01*
X009751Y014128D02*
X009751Y014128D01*
X009751Y013970D02*
X009751Y013970D01*
X009751Y013811D02*
X009751Y013811D01*
X009751Y013653D02*
X009751Y013653D01*
X009751Y013494D02*
X009751Y013494D01*
X009355Y013494D02*
X009087Y013494D01*
X008680Y014180D02*
X008430Y014180D01*
X006930Y012680D01*
X006930Y010930D01*
X008845Y009015D01*
X010680Y009015D01*
X014015Y009015D01*
X015180Y010180D01*
X015606Y010007D02*
X016192Y010007D01*
X016192Y009849D02*
X015499Y009849D01*
X015640Y010166D02*
X016192Y010166D01*
X016192Y010324D02*
X015618Y010324D01*
X015528Y010483D02*
X016192Y010483D01*
X016192Y010641D02*
X013479Y010641D01*
X014192Y009532D02*
X008668Y009532D01*
X008509Y009690D02*
X014351Y009690D01*
X014509Y009849D02*
X008351Y009849D01*
X008192Y010007D02*
X014668Y010007D01*
X014720Y010166D02*
X008034Y010166D01*
X007875Y010324D02*
X014742Y010324D01*
X015029Y009690D02*
X016192Y009690D01*
X016192Y009532D02*
X014871Y009532D01*
X014712Y009373D02*
X016192Y009373D01*
X016192Y009215D02*
X014554Y009215D01*
X014395Y009056D02*
X016192Y009056D01*
X016192Y008898D02*
X014237Y008898D01*
X014034Y009373D02*
X011099Y009373D01*
X011135Y008739D02*
X016192Y008739D01*
X016192Y008581D02*
X015445Y008581D01*
X015432Y008591D02*
X015364Y008625D01*
X015292Y008648D01*
X015218Y008660D01*
X015200Y008660D01*
X015200Y008200D01*
X015660Y008200D01*
X015660Y008218D01*
X015648Y008292D01*
X015625Y008364D01*
X015591Y008432D01*
X015546Y008493D01*
X015493Y008546D01*
X015432Y008591D01*
X015200Y008581D02*
X015160Y008581D01*
X015160Y008660D02*
X015142Y008660D01*
X015068Y008648D01*
X014996Y008625D01*
X014928Y008591D01*
X014867Y008546D01*
X014814Y008493D01*
X014769Y008432D01*
X014735Y008364D01*
X014712Y008292D01*
X014700Y008218D01*
X014700Y008200D01*
X015160Y008200D01*
X015160Y008660D01*
X015160Y008422D02*
X015200Y008422D01*
X015200Y008264D02*
X015160Y008264D01*
X015160Y008200D02*
X015200Y008200D01*
X015200Y008160D01*
X015660Y008160D01*
X015660Y008142D01*
X015648Y008068D01*
X015625Y007996D01*
X015591Y007928D01*
X015546Y007867D01*
X015493Y007814D01*
X015432Y007769D01*
X015364Y007735D01*
X015292Y007712D01*
X015218Y007700D01*
X015200Y007700D01*
X015200Y008160D01*
X015160Y008160D01*
X015160Y007700D01*
X015142Y007700D01*
X015068Y007712D01*
X014996Y007735D01*
X014928Y007769D01*
X014867Y007814D01*
X014814Y007867D01*
X014769Y007928D01*
X014735Y007996D01*
X014712Y008068D01*
X014700Y008142D01*
X014700Y008160D01*
X015160Y008160D01*
X015160Y008200D01*
X015160Y008105D02*
X015200Y008105D01*
X015200Y007947D02*
X015160Y007947D01*
X015160Y007788D02*
X015200Y007788D01*
X015271Y007640D02*
X015088Y007640D01*
X014919Y007570D01*
X014790Y007441D01*
X014720Y007271D01*
X014720Y007088D01*
X014790Y006919D01*
X014919Y006790D01*
X015088Y006720D01*
X015271Y006720D01*
X015441Y006790D01*
X015570Y006919D01*
X015640Y007088D01*
X015640Y007271D01*
X015570Y007441D01*
X015441Y007570D01*
X015271Y007640D01*
X015297Y007630D02*
X016192Y007630D01*
X016192Y007788D02*
X015457Y007788D01*
X015600Y007947D02*
X016192Y007947D01*
X016192Y008105D02*
X015654Y008105D01*
X015653Y008264D02*
X016192Y008264D01*
X016192Y008422D02*
X015595Y008422D01*
X014915Y008581D02*
X011155Y008581D01*
X011155Y008422D02*
X014765Y008422D01*
X014707Y008264D02*
X011155Y008264D01*
X011155Y008105D02*
X014706Y008105D01*
X014760Y007947D02*
X011087Y007947D01*
X010728Y007947D02*
X010632Y007947D01*
X010632Y007909D02*
X010632Y008297D01*
X010205Y008297D01*
X010205Y008066D01*
X010217Y008020D01*
X010241Y007979D01*
X010274Y007945D01*
X010315Y007922D01*
X010361Y007909D01*
X010632Y007909D01*
X010632Y008105D02*
X010728Y008105D01*
X010728Y008264D02*
X010632Y008264D01*
X010205Y008264D02*
X000660Y008264D01*
X000660Y008422D02*
X010205Y008422D01*
X010205Y008581D02*
X000660Y008581D01*
X000660Y008739D02*
X010225Y008739D01*
X010261Y009373D02*
X008826Y009373D01*
X008465Y009056D02*
X000660Y009056D01*
X000660Y008898D02*
X008623Y008898D01*
X008306Y009215D02*
X000660Y009215D01*
X000660Y009373D02*
X008148Y009373D01*
X007989Y009532D02*
X000660Y009532D01*
X000660Y009690D02*
X007831Y009690D01*
X007672Y009849D02*
X000660Y009849D01*
X000660Y010007D02*
X007514Y010007D01*
X007355Y010166D02*
X000660Y010166D01*
X000660Y010324D02*
X007197Y010324D01*
X007038Y010483D02*
X000660Y010483D01*
X000660Y010641D02*
X006880Y010641D01*
X006724Y010800D02*
X004021Y010800D01*
X004140Y010958D02*
X006690Y010958D01*
X006690Y011117D02*
X004190Y011117D01*
X004190Y011275D02*
X006690Y011275D01*
X006690Y011434D02*
X004127Y011434D01*
X003989Y011592D02*
X006690Y011592D01*
X006690Y011751D02*
X003972Y011751D01*
X004120Y011909D02*
X006690Y011909D01*
X006690Y012068D02*
X004185Y012068D01*
X004190Y012226D02*
X006690Y012226D01*
X006690Y012385D02*
X004147Y012385D01*
X004038Y012543D02*
X006690Y012543D01*
X006690Y012702D02*
X003858Y012702D01*
X004081Y012860D02*
X006771Y012860D01*
X006794Y012883D02*
X006794Y012883D01*
X006929Y013019D02*
X004165Y013019D01*
X004190Y013177D02*
X007088Y013177D01*
X007246Y013336D02*
X004168Y013336D01*
X004087Y013494D02*
X007405Y013494D01*
X007563Y013653D02*
X003872Y013653D01*
X004061Y013811D02*
X007722Y013811D01*
X007880Y013970D02*
X004168Y013970D01*
X004208Y014128D02*
X008039Y014128D01*
X008172Y014287D02*
X004200Y014287D01*
X004140Y014445D02*
X008238Y014445D01*
X008382Y014604D02*
X003999Y014604D01*
X003983Y014762D02*
X008377Y014762D01*
X008235Y014921D02*
X004125Y014921D01*
X004190Y015079D02*
X004190Y015281D01*
X004287Y015396D02*
X008217Y015396D01*
X008333Y015555D02*
X004445Y015555D01*
X004083Y015872D02*
X002274Y015872D01*
X002548Y016030D02*
X004242Y016030D01*
X004400Y016189D02*
X002711Y016189D01*
X002850Y016347D02*
X004416Y016347D01*
X004416Y016506D02*
X002942Y016506D01*
X003022Y016664D02*
X004416Y016664D01*
X004478Y016823D02*
X003065Y016823D01*
X003044Y017615D02*
X004396Y017615D01*
X004396Y017774D02*
X002989Y017774D01*
X002897Y017932D02*
X004457Y017932D01*
X004853Y017932D02*
X005007Y017932D01*
X005007Y017774D02*
X004853Y017774D01*
X004853Y017615D02*
X005007Y017615D01*
X005007Y017298D02*
X004853Y017298D01*
X004853Y017140D02*
X005007Y017140D01*
X004930Y016379D02*
X003731Y015180D01*
X003680Y015180D01*
X003333Y015555D02*
X000660Y015555D01*
X000660Y015713D02*
X003925Y015713D01*
X003217Y015396D02*
X000660Y015396D01*
X000660Y015238D02*
X003170Y015238D01*
X003170Y015079D02*
X003248Y014891D01*
X003377Y014762D02*
X000660Y014762D01*
X000660Y014604D02*
X003361Y014604D01*
X003220Y014445D02*
X000660Y014445D01*
X000660Y014287D02*
X003160Y014287D01*
X003152Y014128D02*
X000660Y014128D01*
X000660Y013970D02*
X003192Y013970D01*
X003299Y013811D02*
X000660Y013811D01*
X000660Y013653D02*
X003488Y013653D01*
X003273Y013494D02*
X000660Y013494D01*
X000660Y013336D02*
X003192Y013336D01*
X003170Y013177D02*
X000660Y013177D01*
X000660Y013019D02*
X003195Y013019D01*
X003279Y012860D02*
X000660Y012860D01*
X000660Y012702D02*
X003502Y012702D01*
X003322Y012543D02*
X000660Y012543D01*
X000660Y012385D02*
X003213Y012385D01*
X003170Y012226D02*
X000660Y012226D01*
X000660Y012068D02*
X003175Y012068D01*
X003240Y011909D02*
X000660Y011909D01*
X000660Y011751D02*
X003388Y011751D01*
X003371Y011592D02*
X000660Y011592D01*
X000660Y011434D02*
X003233Y011434D01*
X003170Y011275D02*
X000660Y011275D01*
X000660Y011117D02*
X003170Y011117D01*
X003220Y010958D02*
X000660Y010958D01*
X000660Y010800D02*
X003339Y010800D01*
X000660Y008105D02*
X010205Y008105D01*
X010273Y007947D02*
X000660Y007947D01*
X000660Y007788D02*
X014903Y007788D01*
X015063Y007630D02*
X000660Y007630D01*
X000660Y007471D02*
X014820Y007471D01*
X014737Y007313D02*
X000660Y007313D01*
X000660Y007154D02*
X014720Y007154D01*
X014759Y006996D02*
X000660Y006996D01*
X000660Y006837D02*
X014872Y006837D01*
X014919Y006570D02*
X015088Y006640D01*
X015271Y006640D01*
X015441Y006570D01*
X015570Y006441D01*
X015640Y006271D01*
X015640Y006088D01*
X015570Y005919D01*
X015441Y005790D01*
X015271Y005720D01*
X015088Y005720D01*
X014919Y005790D01*
X014790Y005919D01*
X014720Y006088D01*
X014720Y006271D01*
X014790Y006441D01*
X014919Y006570D01*
X014869Y006520D02*
X000660Y006520D01*
X000660Y006362D02*
X014757Y006362D01*
X014720Y006203D02*
X000660Y006203D01*
X000660Y006045D02*
X014738Y006045D01*
X014823Y005886D02*
X000660Y005886D01*
X000660Y005728D02*
X015070Y005728D01*
X015290Y005728D02*
X016192Y005728D01*
X016192Y005886D02*
X015537Y005886D01*
X015622Y006045D02*
X016192Y006045D01*
X016192Y006203D02*
X015640Y006203D01*
X015603Y006362D02*
X016192Y006362D01*
X016192Y006520D02*
X015491Y006520D01*
X015488Y006837D02*
X016192Y006837D01*
X016192Y006679D02*
X000660Y006679D01*
X000660Y005569D02*
X004755Y005569D01*
X004766Y005569D02*
X004772Y005569D01*
X004408Y005411D02*
X000660Y005411D01*
X000660Y005252D02*
X004159Y005252D01*
X003961Y005094D02*
X000660Y005094D01*
X000660Y004935D02*
X003804Y004935D01*
X003671Y004777D02*
X000660Y004777D01*
X000660Y004618D02*
X003552Y004618D01*
X003458Y004460D02*
X000660Y004460D01*
X000660Y004301D02*
X003379Y004301D01*
X003308Y004143D02*
X000660Y004143D01*
X000660Y003984D02*
X003259Y003984D01*
X003209Y003826D02*
X000660Y003826D01*
X000660Y003667D02*
X003185Y003667D01*
X003164Y003509D02*
X000660Y003509D01*
X000660Y003350D02*
X003154Y003350D01*
X003185Y003192D02*
X000660Y003192D01*
X000660Y003033D02*
X001204Y003033D01*
X000889Y002875D02*
X000660Y002875D01*
X000660Y002716D02*
X000694Y002716D01*
X002156Y003033D02*
X003150Y003033D01*
X003162Y002875D02*
X002471Y002875D01*
X002666Y002716D02*
X003181Y002716D01*
X003210Y002558D02*
X002825Y002558D01*
X002916Y002399D02*
X003251Y002399D01*
X003298Y002241D02*
X003008Y002241D01*
X003053Y002082D02*
X003369Y002082D01*
X003440Y001924D02*
X003095Y001924D01*
X003110Y001765D02*
X003540Y001765D01*
X003653Y001607D02*
X003110Y001607D01*
X003098Y001448D02*
X003777Y001448D01*
X003932Y001290D02*
X003056Y001290D01*
X003013Y001131D02*
X004134Y001131D01*
X004377Y000973D02*
X002923Y000973D01*
X002831Y000814D02*
X004698Y000814D01*
X006747Y000814D02*
X010198Y000814D01*
X009877Y000973D02*
X007055Y000973D01*
X007291Y001131D02*
X009634Y001131D01*
X009432Y001290D02*
X007479Y001290D01*
X007637Y001448D02*
X009277Y001448D01*
X009153Y001607D02*
X007759Y001607D01*
X007863Y001765D02*
X009040Y001765D01*
X008940Y001924D02*
X007959Y001924D01*
X008027Y002082D02*
X008869Y002082D01*
X008798Y002241D02*
X008086Y002241D01*
X008138Y002399D02*
X008751Y002399D01*
X008710Y002558D02*
X008167Y002558D01*
X008196Y002716D02*
X008681Y002716D01*
X008662Y002875D02*
X008204Y002875D01*
X008210Y003033D02*
X008650Y003033D01*
X008685Y003192D02*
X008210Y003192D01*
X008206Y003350D02*
X008654Y003350D01*
X008664Y003509D02*
X008196Y003509D01*
X008175Y003667D02*
X008685Y003667D01*
X008709Y003826D02*
X008151Y003826D01*
X008101Y003984D02*
X008759Y003984D01*
X008808Y004143D02*
X008052Y004143D01*
X007981Y004301D02*
X008879Y004301D01*
X008958Y004460D02*
X007902Y004460D01*
X007808Y004618D02*
X009052Y004618D01*
X009171Y004777D02*
X007689Y004777D01*
X007556Y004935D02*
X009304Y004935D01*
X009461Y005094D02*
X007399Y005094D01*
X007201Y005252D02*
X009659Y005252D01*
X009908Y005411D02*
X006952Y005411D01*
X006605Y005569D02*
X010255Y005569D01*
X010266Y005569D02*
X010272Y005569D01*
X012088Y005569D02*
X012094Y005569D01*
X012105Y005569D02*
X016192Y005569D01*
X016192Y005411D02*
X012452Y005411D01*
X012701Y005252D02*
X016192Y005252D01*
X016192Y005094D02*
X012899Y005094D01*
X013056Y004935D02*
X016192Y004935D01*
X016192Y004777D02*
X013189Y004777D01*
X013308Y004618D02*
X016192Y004618D01*
X016192Y004460D02*
X013402Y004460D01*
X013481Y004301D02*
X016192Y004301D01*
X016192Y004143D02*
X013552Y004143D01*
X013601Y003984D02*
X016192Y003984D01*
X016192Y003826D02*
X013651Y003826D01*
X013675Y003667D02*
X016192Y003667D01*
X016192Y003509D02*
X013696Y003509D01*
X013706Y003350D02*
X016192Y003350D01*
X016192Y003192D02*
X013710Y003192D01*
X013710Y003033D02*
X014704Y003033D01*
X014389Y002875D02*
X013704Y002875D01*
X013696Y002716D02*
X014194Y002716D01*
X014035Y002558D02*
X013667Y002558D01*
X013638Y002399D02*
X013944Y002399D01*
X013852Y002241D02*
X013586Y002241D01*
X013527Y002082D02*
X013807Y002082D01*
X013765Y001924D02*
X013459Y001924D01*
X013363Y001765D02*
X013750Y001765D01*
X013750Y001607D02*
X013259Y001607D01*
X013137Y001448D02*
X013762Y001448D01*
X013804Y001290D02*
X012979Y001290D01*
X012791Y001131D02*
X013847Y001131D01*
X013937Y000973D02*
X012555Y000973D01*
X012247Y000814D02*
X014029Y000814D01*
X015656Y003033D02*
X016192Y003033D01*
X016192Y002875D02*
X015971Y002875D01*
X016166Y002716D02*
X016192Y002716D01*
X016192Y006996D02*
X015601Y006996D01*
X015640Y007154D02*
X016192Y007154D01*
X016192Y007313D02*
X015623Y007313D01*
X015540Y007471D02*
X016192Y007471D01*
X010728Y011592D02*
X010632Y011592D01*
X010632Y011751D02*
X010728Y011751D01*
X010728Y011909D02*
X010632Y011909D01*
X010205Y011275D02*
X009924Y011275D01*
X006594Y005569D02*
X006588Y005569D01*
X001086Y015872D02*
X000660Y015872D01*
X000660Y016030D02*
X000812Y016030D01*
X002792Y018091D02*
X014068Y018091D01*
X014227Y018249D02*
X002633Y018249D01*
X002414Y018408D02*
X014446Y018408D01*
X014828Y018566D02*
X002032Y018566D01*
X015774Y015872D02*
X016192Y015872D01*
X016192Y016030D02*
X016048Y016030D01*
D19*
X001680Y001680D03*
X001680Y017180D03*
X015180Y017180D03*
X015180Y001680D03*
M02*
