%
M48
M72
T01C0.0140
T02C0.0320
T03C0.0400
T04C0.0433
T05C0.1260
%
T01
X5680Y4780
X11180Y4780
T02
X11680Y13036
X9751Y14198
X11680Y15399
T03
X15180Y12180
X15180Y11180
X15180Y10180
X15180Y8180
X15180Y7180
X15180Y6180
T04
X8680Y11180
X8680Y12180
X8680Y13180
X8680Y14180
X8680Y15180
X3680Y15180
X3680Y14180
X3680Y13180
X3680Y12180
X3680Y11180
T05
X1680Y1680
X1680Y17180
X15180Y17180
X15180Y1680
M30
