%
M48
M72
T01C0.0400
T02C0.1260
%
T01
X2350Y3100
X4100Y1600
X6100Y1100
X8100Y1100
X10100Y1600
X11850Y3100
X13100Y5100
X11850Y6100
X11850Y7100
X11850Y8100
X13100Y9100
X12100Y10850
X10100Y12600
X8100Y13100
X6100Y13100
X4100Y12600
X2350Y11100
X1100Y9100
X2350Y8100
X2350Y7100
X2350Y6100
X1100Y5100
X850Y7100
X13400Y7100
T02
X7100Y3163
X7100Y11038
M30
