G75*
%MOIN*%
%OFA0B0*%
%FSLAX24Y24*%
%IPPOS*%
%LPD*%
%AMOC8*
5,1,8,0,0,1.08239X$1,22.5*
%
%ADD10R,0.0150X0.0600*%
%ADD11OC8,0.0760*%
%ADD12C,0.0600*%
%ADD13C,0.0150*%
%ADD14C,0.0160*%
%ADD15C,0.2540*%
D10*
X006475Y006650D03*
X006725Y006650D03*
X006975Y006650D03*
X007225Y006650D03*
X007475Y006650D03*
X007725Y006650D03*
X007725Y007550D03*
X007475Y007550D03*
X007225Y007550D03*
X006975Y007550D03*
X006725Y007550D03*
X006475Y007550D03*
D11*
X002350Y003100D03*
X004100Y001600D03*
X006100Y001100D03*
X008100Y001100D03*
X010100Y001600D03*
X011850Y003100D03*
X013100Y005100D03*
X013400Y007100D03*
X013100Y009100D03*
X012100Y010850D03*
X010100Y012600D03*
X008100Y013100D03*
X006100Y013100D03*
X004100Y012600D03*
X002350Y011100D03*
X001100Y009100D03*
X000850Y007100D03*
X001100Y005100D03*
D12*
X002350Y006100D03*
X002350Y007100D03*
X002350Y008100D03*
X011850Y008100D03*
X011850Y007100D03*
X011850Y006100D03*
D13*
X010100Y003600D02*
X010100Y001600D01*
X008850Y001850D02*
X008100Y001100D01*
X008850Y001850D02*
X008850Y004100D01*
X007225Y005725D01*
X007225Y006650D01*
X006975Y006650D02*
X006975Y005725D01*
X005350Y004100D01*
X005350Y001850D01*
X006100Y001100D01*
X004100Y001600D02*
X004100Y003600D01*
X006725Y006225D01*
X006725Y006650D01*
X006475Y006650D02*
X005900Y006650D01*
X002350Y003100D01*
X006725Y007550D02*
X006725Y007975D01*
X006975Y007550D02*
X006975Y008475D01*
X007225Y008475D02*
X007225Y007550D01*
X007475Y006650D02*
X007475Y006225D01*
X010100Y003600D01*
D14*
X011850Y003100D02*
X008300Y006650D01*
X007725Y006650D01*
X007725Y007550D02*
X008800Y007550D01*
X012100Y010850D01*
X012850Y009100D02*
X011850Y008100D01*
X011850Y007100D02*
X013400Y007100D01*
X011850Y006100D02*
X012850Y005100D01*
X013100Y005100D01*
X013100Y009100D02*
X012850Y009100D01*
X010100Y010600D02*
X010100Y012600D01*
X008850Y012350D02*
X008100Y013100D01*
X008850Y012350D02*
X008850Y010100D01*
X007225Y008475D01*
X006975Y008475D02*
X005350Y010100D01*
X005350Y012350D01*
X006100Y013100D01*
X004100Y012600D02*
X004100Y010600D01*
X006725Y007975D01*
X006475Y007550D02*
X005900Y007550D01*
X002350Y011100D01*
X001350Y009100D02*
X001100Y009100D01*
X001350Y009100D02*
X002350Y008100D01*
X002350Y007100D02*
X000850Y007100D01*
X002350Y006100D02*
X001350Y005100D01*
X001100Y005100D01*
X007475Y007550D02*
X007475Y007975D01*
X010100Y010600D01*
D15*
X007100Y011038D03*
X007100Y003163D03*
M02*
